<svg xmlns="http://www.w3.org/2000/svg" viewBox="0 0 357.98 483.26"><g id="Layer_2" data-name="Layer 2"><g id="Layer_1-2" data-name="Layer 1"><path d="M182.18,483.26c-34.91-.19-68.26-7.33-99.79-22.5a209.63,209.63,0,0,1-55.88-38.92A214.33,214.33,0,0,1,.68,391.47c-1.08-1.55-.88-2.21.65-3.23,13.18-8.82,26-18.24,39.4-26.68,2.13-1.33,3.22-1.32,4.84.64a205.75,205.75,0,0,0,46.54,41.67,163.46,163.46,0,0,0,67.84,25A173.82,173.82,0,0,0,227.27,425a172.07,172.07,0,0,0,60.28-29.47,216.62,216.62,0,0,0,28.86-25.86c1.33-1.43,2.24-1.41,3.75-.25q18.13,13.85,36.39,27.53c1.6,1.2,2,1.91.57,3.7a208.91,208.91,0,0,1-51,46.82c-26.09,17-54.67,27.55-85.27,32.73A223,223,0,0,1,182.18,483.26Z" fill="#236c91"/><path d="M318.42,190.89c-12.34-26.54-30.72-47.77-55.67-63.3-21-13.09-44.19-18.18-68.55-19.36-17.8-.87-35.6-.48-53.4-.63-2.47,0-5,0-7.41-.27-7.24-.74-9.94-4.1-9.7-11.33q.94-27.82,0-55.66c-.39-10.55-3.52-20.21-11.11-28C103.85,3.5,92.75.77,80.89.27,67.18-.31,53.48.24,39.77.18c-2.53,0-2.87.84-2.88,3.07-.08,47.52.3,95-.16,142.56-.17,17.9,0,35.81,0,53.71s0,35.81,0,53.71a146.72,146.72,0,0,0,1.69,22.46C43.48,308,57.15,336,80.7,358.75c34.38,33.27,75.69,46.61,122.94,40.72,33.08-4.11,61.47-18.49,84.84-42.34,27.07-27.61,40.91-61.06,42.87-99.48A139.46,139.46,0,0,0,318.42,190.89Zm-90.66,96.43c-26.38,33.05-77.67,30.31-98-9.05C125.51,270,124,261.06,124,251.79c0-13.89,0-27.78,0-41.67,0-4.7.78-9.1,4.94-12.14a7.26,7.26,0,0,1,4.38-1.72c9.13,0,18.26,0,27.38,0,11.7-.6,23.46-.67,35,1.5,20.62,3.87,34.13,16.43,40.5,36.17C242.36,253,240.54,271.32,227.76,287.32Z" fill="#236b91"/></g></g></svg>